<?xml version="1.0" standalone="no"?>
<!DOCTYPE svg PUBLIC "-//W3C//DTD SVG 20010904//EN"
 "http://www.w3.org/TR/2001/REC-SVG-20010904/DTD/svg10.dtd">
<svg version="1.0" xmlns="http://www.w3.org/2000/svg"
 width="512.000000pt" height="512.000000pt" viewBox="0 0 512.000000 512.000000"
 preserveAspectRatio="xMidYMid meet">
<metadata>
Created by potrace 1.14, written by Peter Selinger 2001-2017
</metadata>
<g transform="translate(0.000000,512.000000) scale(0.100000,-0.100000)"
fill="#000000" stroke="none">
<path d="M1711 5021 c-20 -15 -25 -30 -29 -80 l-4 -61 -125 0 c-129 0 -174
-11 -187 -45 -3 -9 -6 -147 -6 -306 l0 -289 -452 0 c-431 0 -454 -1 -478 -20
-24 -18 -25 -23 -28 -159 l-4 -141 -134 0 c-120 0 -136 -2 -154 -20 -11 -11
-22 -30 -25 -42 -3 -13 -4 -283 -3 -600 3 -662 -5 -609 98 -616 l60 -4 0
-1039 0 -1039 -49 0 c-104 0 -111 -16 -111 -237 0 -92 3 -178 6 -191 15 -55
-140 -52 2474 -52 2625 0 2461 -4 2476 53 3 13 4 105 2 205 -4 213 -4 213 -98
220 l-60 4 0 1039 0 1039 45 0 c56 0 103 23 110 53 3 12 4 284 3 604 -3 543
-4 583 -21 600 -15 15 -39 19 -157 21 l-140 4 0 121 c0 67 -3 132 -6 145 -14
51 -28 52 -509 52 l-445 0 0 283 c0 155 -3 292 -6 305 -11 41 -52 52 -189 52
l-125 0 0 43 c-1 119 7 117 -413 117 -355 0 -383 -3 -439 -42 -28 -19 -28 -19
-55 0 -54 38 -97 42 -453 42 -321 0 -347 -2 -369 -19z"/>
</g>
</svg>
